<mxfile host="app.diagrams.net" modified="2023-05-10T04:30:55.016Z" agent="Mozilla/5.0 (Macintosh; Intel Mac OS X 10_15_7) AppleWebKit/537.36 (KHTML, like Gecko) Chrome/112.0.0.0 Safari/537.36" etag="LY3N1FlYoeO5SA4kuWLH" version="21.2.9" type="device">
  <diagram name="第 1 页" id="RXjVhXTp6VFb9-DI4OPF">
    <mxGraphModel dx="1114" dy="1790" grid="1" gridSize="10" guides="1" tooltips="1" connect="1" arrows="1" fold="1" page="1" pageScale="1" pageWidth="827" pageHeight="1169" math="0" shadow="0">
      <root>
        <mxCell id="0" />
        <mxCell id="1" parent="0" />
        <mxCell id="46Ulp5Bv4syv-vch-Ao2-1" value="&lt;b style=&quot;border-color: var(--border-color);&quot;&gt;&lt;br&gt;管理者&lt;br&gt;&lt;/b&gt;" style="swimlane;fontStyle=4;align=center;verticalAlign=top;childLayout=stackLayout;horizontal=1;startSize=60;horizontalStack=0;resizeParent=1;resizeParentMax=0;resizeLast=0;collapsible=0;marginBottom=0;html=1;rounded=1;absoluteArcSize=1;arcSize=50;whiteSpace=wrap;" vertex="1" parent="1">
          <mxGeometry x="477" y="270" width="140" height="180" as="geometry" />
        </mxCell>
        <mxCell id="46Ulp5Bv4syv-vch-Ao2-2" value="" style="line;strokeWidth=1;fillColor=none;align=left;verticalAlign=middle;spacingTop=-1;spacingLeft=3;spacingRight=3;rotatable=0;labelPosition=right;points=[];portConstraint=eastwest;" vertex="1" parent="46Ulp5Bv4syv-vch-Ao2-1">
          <mxGeometry y="60" width="140" height="8" as="geometry" />
        </mxCell>
        <mxCell id="46Ulp5Bv4syv-vch-Ao2-3" value="＋新增帳號&lt;br&gt;＋刪除帳號&lt;br&gt;＋新增電影資料&lt;br&gt;＋刪除電影資料&lt;br&gt;＋修改電影資料" style="fillColor=none;strokeColor=none;align=left;verticalAlign=middle;spacingLeft=5;whiteSpace=wrap;html=1;" vertex="1" parent="46Ulp5Bv4syv-vch-Ao2-1">
          <mxGeometry y="68" width="140" height="112" as="geometry" />
        </mxCell>
        <mxCell id="46Ulp5Bv4syv-vch-Ao2-4" value="&lt;b style=&quot;border-color: var(--border-color);&quot;&gt;&lt;br&gt;電影星等數&lt;br&gt;&lt;/b&gt;" style="swimlane;fontStyle=4;align=center;verticalAlign=top;childLayout=stackLayout;horizontal=1;startSize=60;horizontalStack=0;resizeParent=1;resizeParentMax=0;resizeLast=0;collapsible=0;marginBottom=0;html=1;rounded=1;absoluteArcSize=1;arcSize=50;whiteSpace=wrap;" vertex="1" parent="1">
          <mxGeometry x="477" y="-110" width="140" height="68" as="geometry" />
        </mxCell>
        <mxCell id="46Ulp5Bv4syv-vch-Ao2-5" value="" style="line;strokeWidth=1;fillColor=none;align=left;verticalAlign=middle;spacingTop=-1;spacingLeft=3;spacingRight=3;rotatable=0;labelPosition=right;points=[];portConstraint=eastwest;" vertex="1" parent="46Ulp5Bv4syv-vch-Ao2-4">
          <mxGeometry y="60" width="140" height="8" as="geometry" />
        </mxCell>
        <mxCell id="46Ulp5Bv4syv-vch-Ao2-6" value="&lt;b style=&quot;border-color: var(--border-color);&quot;&gt;&lt;br&gt;電影&lt;br&gt;&lt;/b&gt;" style="swimlane;fontStyle=4;align=center;verticalAlign=top;childLayout=stackLayout;horizontal=1;startSize=60;horizontalStack=0;resizeParent=1;resizeParentMax=0;resizeLast=0;collapsible=0;marginBottom=0;html=1;rounded=1;absoluteArcSize=1;arcSize=50;whiteSpace=wrap;" vertex="1" parent="1">
          <mxGeometry x="477" y="55" width="140" height="118" as="geometry" />
        </mxCell>
        <mxCell id="46Ulp5Bv4syv-vch-Ao2-7" value="" style="fillColor=none;strokeColor=none;container=1;collapsible=0;" vertex="1" parent="46Ulp5Bv4syv-vch-Ao2-6">
          <mxGeometry y="60" width="140" height="50" as="geometry" />
        </mxCell>
        <mxCell id="46Ulp5Bv4syv-vch-Ao2-8" value="" style="html=1;align=center;verticalAlign=middle;rounded=1;absoluteArcSize=1;arcSize=10;whiteSpace=wrap;strokeColor=none;opacity=0;" vertex="1" parent="46Ulp5Bv4syv-vch-Ao2-7">
          <mxGeometry y="10" width="130" height="30" as="geometry" />
        </mxCell>
        <mxCell id="46Ulp5Bv4syv-vch-Ao2-9" value="－名稱&lt;br&gt;－簡介&lt;br&gt;－評分數" style="html=1;align=left;verticalAlign=middle;rounded=1;absoluteArcSize=1;arcSize=10;whiteSpace=wrap;strokeColor=none;opacity=0;" vertex="1" parent="46Ulp5Bv4syv-vch-Ao2-7">
          <mxGeometry x="6" y="9" width="130" height="30" as="geometry" />
        </mxCell>
        <mxCell id="46Ulp5Bv4syv-vch-Ao2-10" value="" style="line;strokeWidth=1;fillColor=none;align=left;verticalAlign=middle;spacingTop=-1;spacingLeft=3;spacingRight=3;rotatable=0;labelPosition=right;points=[];portConstraint=eastwest;" vertex="1" parent="46Ulp5Bv4syv-vch-Ao2-6">
          <mxGeometry y="110" width="140" height="8" as="geometry" />
        </mxCell>
        <mxCell id="46Ulp5Bv4syv-vch-Ao2-11" value="&lt;b style=&quot;border-color: var(--border-color);&quot;&gt;&lt;br&gt;使用者&lt;br&gt;&lt;/b&gt;" style="swimlane;fontStyle=4;align=center;verticalAlign=top;childLayout=stackLayout;horizontal=1;startSize=60;horizontalStack=0;resizeParent=1;resizeParentMax=0;resizeLast=0;collapsible=0;marginBottom=0;html=1;rounded=1;absoluteArcSize=1;arcSize=50;whiteSpace=wrap;" vertex="1" parent="1">
          <mxGeometry x="247" y="270" width="161" height="180" as="geometry" />
        </mxCell>
        <mxCell id="46Ulp5Bv4syv-vch-Ao2-12" value="" style="fillColor=none;strokeColor=none;container=1;collapsible=0;" vertex="1" parent="46Ulp5Bv4syv-vch-Ao2-11">
          <mxGeometry y="60" width="161" height="50" as="geometry" />
        </mxCell>
        <mxCell id="46Ulp5Bv4syv-vch-Ao2-13" value="－帳號&lt;br&gt;－姓名" style="html=1;align=left;verticalAlign=middle;rounded=1;absoluteArcSize=1;arcSize=10;whiteSpace=wrap;strokeColor=none;opacity=0;" vertex="1" parent="46Ulp5Bv4syv-vch-Ao2-12">
          <mxGeometry x="5" y="9" width="130" height="30" as="geometry" />
        </mxCell>
        <mxCell id="46Ulp5Bv4syv-vch-Ao2-14" value="" style="line;strokeWidth=1;fillColor=none;align=left;verticalAlign=middle;spacingTop=-1;spacingLeft=3;spacingRight=3;rotatable=0;labelPosition=right;points=[];portConstraint=eastwest;" vertex="1" parent="46Ulp5Bv4syv-vch-Ao2-11">
          <mxGeometry y="110" width="161" height="8" as="geometry" />
        </mxCell>
        <mxCell id="46Ulp5Bv4syv-vch-Ao2-15" value="＋電影評論()&lt;br&gt;＋電影搜尋()" style="fillColor=none;strokeColor=none;align=left;verticalAlign=middle;spacingLeft=5;whiteSpace=wrap;html=1;" vertex="1" parent="46Ulp5Bv4syv-vch-Ao2-11">
          <mxGeometry y="118" width="161" height="62" as="geometry" />
        </mxCell>
        <mxCell id="46Ulp5Bv4syv-vch-Ao2-16" value="" style="endArrow=none;html=1;rounded=0;endFill=0;entryX=0.5;entryY=0;entryDx=0;entryDy=0;endSize=6;" edge="1" parent="1" target="46Ulp5Bv4syv-vch-Ao2-6">
          <mxGeometry width="50" height="50" relative="1" as="geometry">
            <mxPoint x="546.41" y="-42" as="sourcePoint" />
            <mxPoint x="546.41" y="48" as="targetPoint" />
          </mxGeometry>
        </mxCell>
        <mxCell id="46Ulp5Bv4syv-vch-Ao2-17" value="" style="endArrow=none;html=1;rounded=0;endFill=0;entryX=0.5;entryY=0;entryDx=0;entryDy=0;endSize=6;" edge="1" parent="1" target="46Ulp5Bv4syv-vch-Ao2-1">
          <mxGeometry width="50" height="50" relative="1" as="geometry">
            <mxPoint x="546.41" y="173" as="sourcePoint" />
            <mxPoint x="547" y="230" as="targetPoint" />
          </mxGeometry>
        </mxCell>
        <mxCell id="46Ulp5Bv4syv-vch-Ao2-18" value="&amp;lt;&amp;lt;新增&amp;gt;&amp;gt;" style="text;html=1;strokeColor=none;fillColor=none;align=center;verticalAlign=middle;whiteSpace=wrap;rounded=0;" vertex="1" parent="1">
          <mxGeometry x="547" y="210" width="60" height="30" as="geometry" />
        </mxCell>
        <mxCell id="46Ulp5Bv4syv-vch-Ao2-19" value="&lt;b style=&quot;border-color: var(--border-color);&quot;&gt;&lt;br&gt;電影評論數&lt;br&gt;&lt;/b&gt;" style="swimlane;fontStyle=4;align=center;verticalAlign=top;childLayout=stackLayout;horizontal=1;startSize=60;horizontalStack=0;resizeParent=1;resizeParentMax=0;resizeLast=0;collapsible=0;marginBottom=0;html=1;rounded=1;absoluteArcSize=1;arcSize=50;whiteSpace=wrap;" vertex="1" parent="1">
          <mxGeometry x="268" y="-68" width="140" height="68" as="geometry" />
        </mxCell>
        <mxCell id="46Ulp5Bv4syv-vch-Ao2-20" value="" style="line;strokeWidth=1;fillColor=none;align=left;verticalAlign=middle;spacingTop=-1;spacingLeft=3;spacingRight=3;rotatable=0;labelPosition=right;points=[];portConstraint=eastwest;" vertex="1" parent="46Ulp5Bv4syv-vch-Ao2-19">
          <mxGeometry y="60" width="140" height="8" as="geometry" />
        </mxCell>
        <mxCell id="46Ulp5Bv4syv-vch-Ao2-21" value="" style="endArrow=none;html=1;rounded=0;endFill=0;entryX=0.954;entryY=1.033;entryDx=0;entryDy=0;entryPerimeter=0;" edge="1" parent="1" target="46Ulp5Bv4syv-vch-Ao2-20">
          <mxGeometry width="50" height="50" relative="1" as="geometry">
            <mxPoint x="477" y="113.41000000000003" as="sourcePoint" />
            <mxPoint x="407" y="10" as="targetPoint" />
          </mxGeometry>
        </mxCell>
        <mxCell id="46Ulp5Bv4syv-vch-Ao2-22" value="0..*" style="text;html=1;strokeColor=none;fillColor=none;align=center;verticalAlign=middle;whiteSpace=wrap;rounded=0;" vertex="1" parent="1">
          <mxGeometry x="397" y="-20" width="60" height="30" as="geometry" />
        </mxCell>
        <mxCell id="46Ulp5Bv4syv-vch-Ao2-23" value="" style="endArrow=none;html=1;rounded=0;entryX=1;entryY=0.25;entryDx=0;entryDy=0;endFill=0;" edge="1" parent="1">
          <mxGeometry width="50" height="50" relative="1" as="geometry">
            <mxPoint x="477" y="359" as="sourcePoint" />
            <mxPoint x="408" y="359.41" as="targetPoint" />
          </mxGeometry>
        </mxCell>
        <mxCell id="46Ulp5Bv4syv-vch-Ao2-24" value="&lt;b style=&quot;border-color: var(--border-color);&quot;&gt;&lt;br&gt;評論&lt;br&gt;&lt;/b&gt;" style="swimlane;fontStyle=4;align=center;verticalAlign=top;childLayout=stackLayout;horizontal=1;startSize=60;horizontalStack=0;resizeParent=1;resizeParentMax=0;resizeLast=0;collapsible=0;marginBottom=0;html=1;rounded=1;absoluteArcSize=1;arcSize=50;whiteSpace=wrap;" vertex="1" parent="1">
          <mxGeometry x="160" y="55" width="140" height="118" as="geometry" />
        </mxCell>
        <mxCell id="46Ulp5Bv4syv-vch-Ao2-25" value="" style="fillColor=none;strokeColor=none;container=1;collapsible=0;" vertex="1" parent="46Ulp5Bv4syv-vch-Ao2-24">
          <mxGeometry y="60" width="140" height="50" as="geometry" />
        </mxCell>
        <mxCell id="46Ulp5Bv4syv-vch-Ao2-26" value="" style="html=1;align=center;verticalAlign=middle;rounded=1;absoluteArcSize=1;arcSize=10;whiteSpace=wrap;strokeColor=none;opacity=0;" vertex="1" parent="46Ulp5Bv4syv-vch-Ao2-25">
          <mxGeometry y="10" width="130" height="30" as="geometry" />
        </mxCell>
        <mxCell id="46Ulp5Bv4syv-vch-Ao2-27" value="－內容&lt;br&gt;－給星數" style="html=1;align=left;verticalAlign=middle;rounded=1;absoluteArcSize=1;arcSize=10;whiteSpace=wrap;strokeColor=none;opacity=0;" vertex="1" parent="46Ulp5Bv4syv-vch-Ao2-25">
          <mxGeometry x="6" y="9" width="130" height="30" as="geometry" />
        </mxCell>
        <mxCell id="46Ulp5Bv4syv-vch-Ao2-28" value="" style="line;strokeWidth=1;fillColor=none;align=left;verticalAlign=middle;spacingTop=-1;spacingLeft=3;spacingRight=3;rotatable=0;labelPosition=right;points=[];portConstraint=eastwest;" vertex="1" parent="46Ulp5Bv4syv-vch-Ao2-24">
          <mxGeometry y="110" width="140" height="8" as="geometry" />
        </mxCell>
        <mxCell id="46Ulp5Bv4syv-vch-Ao2-29" value="" style="endArrow=none;html=1;rounded=0;entryX=0.25;entryY=1;entryDx=0;entryDy=0;endFill=0;exitX=0;exitY=0.25;exitDx=0;exitDy=0;" edge="1" parent="1" source="46Ulp5Bv4syv-vch-Ao2-8" target="46Ulp5Bv4syv-vch-Ao2-30">
          <mxGeometry width="50" height="50" relative="1" as="geometry">
            <mxPoint x="466.5" y="130" as="sourcePoint" />
            <mxPoint x="397.5" y="130.41000000000003" as="targetPoint" />
          </mxGeometry>
        </mxCell>
        <mxCell id="46Ulp5Bv4syv-vch-Ao2-30" value="0..*" style="text;html=1;strokeColor=none;fillColor=none;align=center;verticalAlign=middle;whiteSpace=wrap;rounded=0;" vertex="1" parent="1">
          <mxGeometry x="287" y="99" width="60" height="30" as="geometry" />
        </mxCell>
        <mxCell id="46Ulp5Bv4syv-vch-Ao2-31" value="1" style="text;html=1;strokeColor=none;fillColor=none;align=center;verticalAlign=middle;whiteSpace=wrap;rounded=0;" vertex="1" parent="1">
          <mxGeometry x="437" y="110" width="60" height="30" as="geometry" />
        </mxCell>
        <mxCell id="46Ulp5Bv4syv-vch-Ao2-32" value="1" style="text;html=1;strokeColor=none;fillColor=none;align=center;verticalAlign=middle;whiteSpace=wrap;rounded=0;" vertex="1" parent="1">
          <mxGeometry x="454.5" y="55" width="25" height="30" as="geometry" />
        </mxCell>
        <mxCell id="46Ulp5Bv4syv-vch-Ao2-33" value="擁有" style="text;html=1;strokeColor=none;fillColor=none;align=center;verticalAlign=middle;whiteSpace=wrap;rounded=0;" vertex="1" parent="1">
          <mxGeometry x="384" y="104" width="40" height="30" as="geometry" />
        </mxCell>
        <mxCell id="46Ulp5Bv4syv-vch-Ao2-34" value="" style="shape=mxgraph.arrows2.wedgeArrow;html=1;bendable=0;startWidth=4.7058823529411775;fillColor=strokeColor;defaultFillColor=invert;defaultGradientColor=invert;rounded=0;" edge="1" parent="1">
          <mxGeometry width="100" height="100" relative="1" as="geometry">
            <mxPoint x="382" y="119" as="sourcePoint" />
            <mxPoint x="367" y="119" as="targetPoint" />
          </mxGeometry>
        </mxCell>
        <mxCell id="46Ulp5Bv4syv-vch-Ao2-35" value="" style="endArrow=none;html=1;rounded=0;endFill=0;endSize=6;entryX=0.75;entryY=1;entryDx=0;entryDy=0;" edge="1" parent="1" target="46Ulp5Bv4syv-vch-Ao2-24">
          <mxGeometry width="50" height="50" relative="1" as="geometry">
            <mxPoint x="310" y="270" as="sourcePoint" />
            <mxPoint x="307" y="190" as="targetPoint" />
          </mxGeometry>
        </mxCell>
        <mxCell id="46Ulp5Bv4syv-vch-Ao2-36" value="&amp;lt;&amp;lt;新增&amp;gt;&amp;gt;" style="text;html=1;strokeColor=none;fillColor=none;align=center;verticalAlign=middle;whiteSpace=wrap;rounded=0;" vertex="1" parent="1">
          <mxGeometry x="297" y="200" width="60" height="30" as="geometry" />
        </mxCell>
      </root>
    </mxGraphModel>
  </diagram>
</mxfile>
